<?xml version="1.0" standalone="no"?><!DOCTYPE svg PUBLIC "-//W3C//DTD SVG 1.1//EN" "http://www.w3.org/Graphics/SVG/1.1/DTD/svg11.dtd"><svg t="1524027515741" class="icon" style="" viewBox="0 0 1463 1024" version="1.1" xmlns="http://www.w3.org/2000/svg" p-id="9263" xmlns:xlink="http://www.w3.org/1999/xlink" width="20.001953125" height="14"><defs><style type="text/css"></style></defs><path d="M1389.714286 585.142857 1389.714286 438.857143C1329.120768 438.857143 1280 389.736375 1280 329.142857 1280 268.549339 1329.120768 219.428571 1389.714286 219.428571L1389.714286 219.064795C1389.714286 138.47435 1324.425289 73.142857 1243.787739 73.142857L219.069403 73.142857C138.476398 73.142857 73.142857 138.397001 73.142857 219.064795L73.142857 219.428571C133.736375 219.428571 182.857143 268.549339 182.857143 329.142857 182.857143 389.736375 133.736375 438.857143 73.142857 438.857143L73.142857 585.142857C133.736375 585.142857 182.857143 634.263625 182.857143 694.857143 182.857143 755.450661 133.736375 804.571429 73.142857 804.571429L73.142857 804.935205C73.142857 885.52565 138.431854 950.857143 219.069403 950.857143L1243.787739 950.857143C1324.380745 950.857143 1389.714286 885.602999 1389.714286 804.935205L1389.714286 804.571429C1329.120768 804.571429 1280 755.450661 1280 694.857143 1280 634.263625 1329.120768 585.142857 1389.714286 585.142857L1389.714286 585.142857 1389.714286 585.142857 1389.714286 585.142857 1389.714286 585.142857 1389.714286 585.142857 1389.714286 585.142857 1389.714286 585.142857ZM1462.857143 585.142857 1462.857143 585.142857 1462.857143 658.285714 1389.714286 658.285714C1369.516434 658.285714 1353.142857 674.659291 1353.142857 694.857143 1353.142857 715.054994 1369.516434 731.428571 1389.714286 731.428571L1462.857143 731.428571 1462.857143 804.571429 1462.857143 804.935205C1462.857143 925.978478 1364.796635 1024 1243.787739 1024L219.069403 1024C98.048585 1024 0 925.933787 0 804.935205L0 804.571429 0 731.428571 73.142857 731.428571C93.340709 731.428571 109.714286 715.054994 109.714286 694.857143 109.714286 674.659291 93.340709 658.285714 73.142857 658.285714L0 658.285714 0 585.142857 0 438.857143 0 365.714286 73.142857 365.714286C93.340709 365.714286 109.714286 349.340709 109.714286 329.142857 109.714286 308.945006 93.340709 292.571429 73.142857 292.571429L0 292.571429 0 219.428571 0 219.064795C0 98.021522 98.060507 0 219.069403 0L1243.787739 0C1364.808558 0 1462.857143 98.066213 1462.857143 219.064795L1462.857143 219.428571 1462.857143 292.571429 1389.714286 292.571429C1369.516434 292.571429 1353.142857 308.945006 1353.142857 329.142857 1353.142857 349.340709 1369.516434 365.714286 1389.714286 365.714286L1462.857143 365.714286 1462.857143 438.857143 1462.857143 585.142857 1462.857143 585.142857 1462.857143 585.142857ZM548.571429 548.571429C479.708928 548.571429 438.857143 477.007543 438.857143 402.285714 438.857143 327.563886 479.708928 256 548.571429 256 617.433929 256 658.285714 327.563886 658.285714 402.285714 658.285714 477.007543 617.433929 548.571429 548.571429 548.571429L548.571429 548.571429 548.571429 548.571429 548.571429 548.571429ZM548.571429 475.428571C563.450661 475.428571 585.142857 446.505655 585.142857 402.285714 585.142857 358.065774 563.450661 329.142857 548.571429 329.142857 533.692197 329.142857 512 358.065774 512 402.285714 512 446.505655 533.692197 475.428571 548.571429 475.428571L548.571429 475.428571 548.571429 475.428571 548.571429 475.428571ZM914.285714 768C845.423214 768 804.571429 696.436114 804.571429 621.714286 804.571429 546.992457 845.423214 475.428571 914.285714 475.428571 983.148215 475.428571 1024 546.992457 1024 621.714286 1024 696.436114 983.148215 768 914.285714 768L914.285714 768 914.285714 768 914.285714 768ZM914.285714 694.857143C929.164946 694.857143 950.857143 665.934226 950.857143 621.714286 950.857143 577.494345 929.164946 548.571429 914.285714 548.571429 899.406482 548.571429 877.714286 577.494345 877.714286 621.714286 877.714286 665.934226 899.406482 694.857143 914.285714 694.857143L914.285714 694.857143 914.285714 694.857143 914.285714 694.857143ZM822.841198 272.039387 566.873088 715.389184C556.701806 733.006336 562.751378 755.275374 580.2432 765.374281 597.857024 775.543625 620.108946 769.467685 630.216667 751.960613L886.184777 308.610816C896.356023 290.993664 890.306487 268.724626 872.814629 258.625719 855.200841 248.456375 832.948919 254.532315 822.841198 272.039387L822.841198 272.039387 822.841198 272.039387 822.841198 272.039387Z" p-id="9264" fill="#c7c7c7"></path></svg>