<?xml version="1.0" standalone="no"?><!DOCTYPE svg PUBLIC "-//W3C//DTD SVG 1.1//EN" "http://www.w3.org/Graphics/SVG/1.1/DTD/svg11.dtd"><svg t="1524116951402" class="icon" style="" viewBox="0 0 1024 1024" version="1.1" xmlns="http://www.w3.org/2000/svg" p-id="2196" xmlns:xlink="http://www.w3.org/1999/xlink" width="20" height="20"><defs><style type="text/css"></style></defs><path d="M864.930549 169.353453 159.069451 169.353453C107.495953 169.353453 65.541321 211.308084 65.541321 262.881583l0 498.236834c0 51.573499 41.954632 93.52813 93.52813 93.52813l705.861097 0c51.573499 0 93.52813-41.954632 93.52813-93.52813L958.458679 262.881583C958.458679 211.308084 916.504047 169.353453 864.930549 169.353453zM127.859298 285.700809l209.363845 202.712501L127.859298 739.527131 127.859298 285.700809zM635.305686 459.045068c-64.773858 64.773858-171.093035 65.694814-236.992505 1.944239L161.627661 231.67143 862.679324 231.67143 635.305686 459.045068zM384.089537 529.549315c39.396423 27.219346 85.546517 40.82902 131.798941 40.82902 42.466274 0 84.932547-11.563106 122.077746-34.484661l220.926951 256.434896L164.902168 792.32857 384.089537 529.549315zM686.162886 496.292595 896.24303 286.212451l0 453.92865L686.162886 496.292595z" p-id="2197" fill="#F2F4F5"></path></svg>