<?xml version="1.0" standalone="no"?><!DOCTYPE svg PUBLIC "-//W3C//DTD SVG 1.1//EN" "http://www.w3.org/Graphics/SVG/1.1/DTD/svg11.dtd"><svg t="1524026549126" class="icon" style="" viewBox="0 0 1024 1024" version="1.1" xmlns="http://www.w3.org/2000/svg" p-id="3025" xmlns:xlink="http://www.w3.org/1999/xlink" width="14" height="14"><defs><style type="text/css"></style></defs><path d="M187.733333 912.648533l267.895467-175.7696c39.168-29.806933 99.6096-28.373333 137.728 2.167467L836.266667 908.202667V87.159467c0-0.836267-0.9984-1.826133-2.2784-1.826134H190.011733c-1.28 0-2.2784 0.989867-2.2784 1.826134v825.489066zM159.368533 1024c-17.9456 0-34.218667-8.2176-44.654933-22.912C106.530133 989.636267 102.4 975.445333 102.4 958.762667V87.150933C102.4 39.099733 141.696 0 190.011733 0h643.976534C882.304 0 921.6 39.099733 921.6 87.159467v871.594666c0 44.330667-28.910933 64.750933-55.765333 64.750934-10.3936 0-26.513067-3.242667-44.305067-17.4336L539.630933 805.3504c-7.458133-5.973333-24.746667-6.468267-32.4096-0.494933l-304.725333 203.451733C188.706133 1018.5216 173.789867 1024 159.368533 1024z" fill="#C7C7C7" p-id="3026"></path></svg>