<?xml version="1.0" standalone="no"?><!DOCTYPE svg PUBLIC "-//W3C//DTD SVG 1.1//EN" "http://www.w3.org/Graphics/SVG/1.1/DTD/svg11.dtd"><svg t="1524027643310" class="icon" style="" viewBox="0 0 1025 1024" version="1.1" xmlns="http://www.w3.org/2000/svg" p-id="9989" xmlns:xlink="http://www.w3.org/1999/xlink" width="14.013671875" height="14"><defs><style type="text/css"></style></defs><path d="M1016.43865 533.882435C988.501259 503.674435 586.447694 82.031304 561.359694 54.850783c-22.505739-24.375652-76.087652-24.798609-98.57113 0C428.573607 92.605217 28.568042 512.022261 8.733607 532.813913-15.998219 558.747826 15.47865 585.015652 57.774303 585.015652L122.21952 585.015652l0 329.416348c0 40.403478 32.834783 73.149217 73.327304 73.149217l219.024696 0L414.57152 719.36l195.072 0 0 268.221217 221.250783 0c40.492522 0 73.305043-32.745739 73.305043-73.149217L904.199346 585.015652l63.488 0C1014.279346 585.015652 1036.91865 556.009739 1016.43865 533.882435z" p-id="9990" fill="#c7c7c7"></path></svg>