<?xml version="1.0" standalone="no"?><!DOCTYPE svg PUBLIC "-//W3C//DTD SVG 1.1//EN" "http://www.w3.org/Graphics/SVG/1.1/DTD/svg11.dtd"><svg t="1524123316222" class="icon" style="" viewBox="0 0 1024 1024" version="1.1" xmlns="http://www.w3.org/2000/svg" p-id="1104" xmlns:xlink="http://www.w3.org/1999/xlink" width="16" height="16"><defs><style type="text/css"></style></defs><path d="M910.469565 184.765217l-111.304348 0c-2.226087-6.678261-13.356522-33.391304-20.034783-44.521739-15.582609-33.391304-26.713043-48.973913-60.104348-48.973913L307.2 91.269565c-33.391304 0-46.747826 13.356522-66.782609 62.330435-4.452174 11.130435-11.130435 26.713043-13.356522 31.165217L113.530435 184.765217C51.2 184.765217 0 235.965217 0 298.295652l0 518.678261c0 62.330435 51.2 113.530435 113.530435 113.530435l796.93913 0c62.330435 0 113.530435-51.2 113.530435-113.530435L1024 298.295652C1024 235.965217 972.8 184.765217 910.469565 184.765217L910.469565 184.765217zM42.295652 298.295652c0-40.069565 31.165217-71.234783 71.234783-71.234783l122.434783 0c15.582609 0 20.034783-6.678261 24.486957-13.356522 6.678261-13.356522 8.904348-22.26087 13.356522-31.165217 2.226087-4.452174 4.452174-11.130435 6.678261-15.582609 0 0 0-2.226087 2.226087-4.452174 4.452174-8.904348 11.130435-26.713043 26.713043-26.713043l411.826087 0c13.356522 0 17.808696 8.904348 22.26087 17.808696l0 2.226087c2.226087 6.678261 6.678261 13.356522 11.130435 22.26087 6.678261 15.582609 13.356522 31.165217 15.582609 35.617391 4.452174 8.904348 11.130435 13.356522 20.034783 13.356522l124.66087 0c40.069565 0 71.234783 31.165217 71.234783 71.234783l0 518.678261c0 40.069565-31.165217 71.234783-71.234783 71.234783L113.530435 888.208696c-40.069565 0-71.234783-31.165217-71.234783-71.234783L42.295652 298.295652 42.295652 298.295652 42.295652 298.295652zM42.295652 298.295652" p-id="1105" fill="#0D79D1"></path><path d="M512 790.26087c129.113043 0 233.73913-104.626087 233.73913-233.73913 0-129.113043-104.626087-233.73913-233.73913-233.73913s-233.73913 104.626087-233.73913 233.73913C280.486957 687.86087 382.886957 790.26087 512 790.26087L512 790.26087zM512 365.078261c106.852174 0 191.443478 86.817391 191.443478 191.443478 0 106.852174-86.817391 191.443478-191.443478 191.443478s-191.443478-86.817391-191.443478-191.443478C320.556522 451.895652 405.147826 365.078261 512 365.078261L512 365.078261zM512 365.078261" p-id="1106" fill="#0D79D1"></path><path d="M812.521739 367.304348l51.2 0c11.130435 0 20.034783-8.904348 20.034783-20.034783 0-11.130435-8.904348-20.034783-20.034783-20.034783l-51.2 0c-11.130435 0-20.034783 8.904348-20.034783 20.034783C790.26087 358.4 801.391304 367.304348 812.521739 367.304348L812.521739 367.304348zM812.521739 367.304348" p-id="1107" fill="#0D79D1"></path></svg>