<?xml version="1.0" standalone="no"?><!DOCTYPE svg PUBLIC "-//W3C//DTD SVG 1.1//EN" "http://www.w3.org/Graphics/SVG/1.1/DTD/svg11.dtd"><svg t="1524027422641" class="icon" style="" viewBox="0 0 1059 1024" version="1.1" xmlns="http://www.w3.org/2000/svg" p-id="7359" xmlns:xlink="http://www.w3.org/1999/xlink" width="14.478515625" height="14"><defs><style type="text/css"></style></defs><path d="M900.413793 723.862069v113.399172C900.413793 891.595034 856.064 935.724138 801.235862 935.724138h-613.782069C132.625655 935.724138 88.275862 891.595034 88.275862 837.261241V186.738759C88.275862 132.404966 132.625655 88.275862 187.453793 88.275862h613.782069C856.064 88.275862 900.413793 132.404966 900.413793 186.738759V282.482759H662.068966c-121.882483 0-220.689655 98.78069-220.689656 220.689655 0 121.882483 98.763034 220.689655 220.689656 220.689655h238.344827z m88.275862-441.37931V186.738759C988.689655 83.544276 904.721655 0 801.235862 0h-613.782069C83.968 0 0 83.544276 0 186.738759v650.522482C0 940.455724 83.968 1024 187.453793 1024h613.782069C904.721655 1024 988.689655 940.455724 988.689655 837.261241V723.862069h0.035311A70.576552 70.576552 0 0 0 1059.310345 653.188414V353.156414c0-39.035586-31.602759-70.673655-70.585379-70.673655H988.689655z m-17.655172 335.518896c0 9.710345-7.856552 17.584552-17.566897 17.584552H662.077793C588.941241 635.586207 529.655172 576.317793 529.655172 503.172414c0-73.127724 59.294897-132.413793 132.431449-132.413793h291.372138c9.710345 0 17.575724 7.927172 17.575724 17.584551v229.658483zM662.068966 547.310345a44.137931 44.137931 0 1 0 0-88.275862 44.137931 44.137931 0 0 0 0 88.275862z" fill="#c7c7c7" p-id="7360"></path></svg>