<?xml version="1.0" standalone="no"?><!DOCTYPE svg PUBLIC "-//W3C//DTD SVG 1.1//EN" "http://www.w3.org/Graphics/SVG/1.1/DTD/svg11.dtd"><svg t="1524040368940" class="icon" style="" viewBox="0 0 1024 1024" version="1.1" xmlns="http://www.w3.org/2000/svg" p-id="1971" xmlns:xlink="http://www.w3.org/1999/xlink" width="25" height="25"><defs><style type="text/css"></style></defs><path d="M288 576h128a32 32 0 0 0 0-64H288a32 32 0 0 0 0 64M288 704h128a32 32 0 0 0 0-64H288a32 32 0 0 0 0 64M288 448h256a32 32 0 0 0 0-64H288a32 32 0 0 0 0 64" p-id="1972" fill="#7BDCB8"></path><path d="M831.936 768L192 768.224V255.776L192.096 256 832 255.776 831.936 768z m0-576H192.096A64 64 0 0 0 128 255.776v512.448A64 64 0 0 0 192.096 832h639.84A64 64 0 0 0 896 768.224V255.776A64 64 0 0 0 831.936 192z" p-id="1973" fill="#7BDCB8"></path></svg>