<?xml version="1.0" standalone="no"?><!DOCTYPE svg PUBLIC "-//W3C//DTD SVG 1.1//EN" "http://www.w3.org/Graphics/SVG/1.1/DTD/svg11.dtd"><svg t="1524027659743" class="icon" style="" viewBox="0 0 1024 1024" version="1.1" xmlns="http://www.w3.org/2000/svg" p-id="10358" xmlns:xlink="http://www.w3.org/1999/xlink" width="14" height="14"><defs><style type="text/css"></style></defs><path d="M430.08 463.36c2.133333-14.08 6.826667-26.453333 12.8-36.693333 5.12-11.093333 14.506667-20.053333 25.173333-26.88 10.24-6.4 22.613333-9.386667 38.826667-9.813334 9.813333 0.426667 18.773333 2.133333 26.453333 5.546667 8.96 3.84 16.64 9.813333 22.613334 15.36 5.973333 6.4 10.666667 14.08 14.506666 22.613333 3.84 8.533333 5.546667 17.92 5.546667 27.306667h76.8c-0.853333-20.053333-4.693333-38.4-12.8-55.466667-6.4-16.213333-16.213333-30.72-29.013333-42.666666-13.653333-11.946667-28.16-21.333333-46.08-28.16-17.92-6.826667-37.546667-9.813333-59.306667-9.813334-27.733333 0-52.053333 4.693333-72.533333 14.506667-20.48 9.813333-37.546667 23.466667-51.2 39.253333-13.653333 16.64-23.893333 35.84-30.293334 58.026667-6.4 22.186667-10.24 45.226667-10.24 69.973333v11.52c0 24.746667 3.413333 47.786667 9.813334 69.973334 6.4 22.186667 16.64 41.386667 30.293333 57.6 13.653333 15.786667 30.72 29.44 51.2 38.826666 20.48 9.386667 44.8 14.506667 72.533333 14.506667 20.053333 0 38.826667-3.413333 56.32-9.813333 17.493333-6.4 32.853333-15.36 46.08-27.733334 13.226667-10.666667 23.893333-23.893333 32.426667-39.253333 6.826667-15.36 11.52-31.573333 11.946667-49.066667H576c0 8.96-2.986667 17.066667-6.826667 24.32-3.84 8.106667-8.96 14.506667-14.506666 20.053334-7.253333 5.546667-14.506667 9.813333-23.04 12.8-8.106667 2.986667-16.64 3.84-25.6 4.266666-15.36-0.426667-28.16-3.413333-37.973334-9.813333a60.16 60.16 0 0 1-25.173333-27.306667 100.693333 100.693333 0 0 1-12.8-36.693333 287.573333 287.573333 0 0 1-3.413333-42.666667v-11.52c0-15.786667 1.28-29.013333 3.413333-43.093333M512 85.333333A426.666667 426.666667 0 0 0 85.333333 512a426.666667 426.666667 0 0 0 426.666667 426.666667 426.666667 426.666667 0 0 0 426.666667-426.666667A426.666667 426.666667 0 0 0 512 85.333333m0 768c-188.16 0-341.333333-153.173333-341.333333-341.333333s153.173333-341.333333 341.333333-341.333333 341.333333 153.173333 341.333333 341.333333-153.173333 341.333333-341.333333 341.333333z" fill="#c7c7c7" p-id="10359"></path></svg>