<?xml version="1.0" standalone="no"?><!DOCTYPE svg PUBLIC "-//W3C//DTD SVG 1.1//EN" "http://www.w3.org/Graphics/SVG/1.1/DTD/svg11.dtd"><svg t="1524026842571" class="icon" style="" viewBox="0 0 1024 1024" version="1.1" xmlns="http://www.w3.org/2000/svg" p-id="3524" xmlns:xlink="http://www.w3.org/1999/xlink" width="14" height="14"><defs><style type="text/css"></style></defs><path d="M983.8 312.7C958 251.7 921 197 874 150c-47-47-101.7-84-162.7-109.7C648.2 13.5 581.1 0 512 0S375.8 13.5 312.7 40.3C251.7 66 197 103 150 150c-47 47-84 101.7-109.7 162.7C13.5 375.8 0 442.9 0 512s13.5 136.2 40.3 199.3C66 772.3 103 827 150 874c47 47 101.8 83.9 162.7 109.7 63.1 26.7 130.2 40.3 199.3 40.3s136.2-13.5 199.3-40.3C772.3 958 827 921 874 874c47-47 83.9-101.8 109.7-162.7 26.7-63.1 40.3-130.2 40.3-199.3s-13.5-136.2-40.2-199.3zM512 952C269.4 952 72 754.6 72 512S269.4 72 512 72s440 197.4 440 440-197.4 440-440 440z" p-id="3525" fill="#C7C7C7"></path><path d="M702.9 352.2L459.7 595.4 321.1 456.8c-14.1-14.1-36.9-14.1-50.9 0-14.1 14.1-14.1 36.9 0 50.9l164 164c7 7 16.2 10.5 25.5 10.5s18.4-3.5 25.5-10.5L753.9 403c14.1-14.1 14.1-36.9 0-50.9s-36.9-14-51 0.1z" p-id="3526" fill="#C7C7C7"></path></svg>