<?xml version="1.0" standalone="no"?><!DOCTYPE svg PUBLIC "-//W3C//DTD SVG 1.1//EN" "http://www.w3.org/Graphics/SVG/1.1/DTD/svg11.dtd"><svg t="1524116979670" class="icon" style="" viewBox="0 0 1024 1024" version="1.1" xmlns="http://www.w3.org/2000/svg" p-id="3222" xmlns:xlink="http://www.w3.org/1999/xlink" width="20" height="20"><defs><style type="text/css"></style></defs><path d="M562.972444 554.666667c0 28.103111-22.869333 50.972444-51.029333 50.972444-28.216889 0-50.972444-22.755556-50.972444-50.972444L460.970667 112.526222c0-28.103111 22.869333-50.972444 50.972444-50.972444s51.029333 22.869333 51.029333 50.972444L562.972444 554.666667 562.972444 554.666667zM84.593778 535.438222c0-152.576 80.554667-286.663111 201.102222-361.813333 23.608889-15.018667 55.125333-7.850667 69.973333 16.042667C370.631111 213.617778 363.463111 244.963556 339.626667 259.868444 247.694222 317.610667 186.652444 419.043556 186.652444 535.324444c0.398222 179.598222 145.635556 324.892444 325.290667 325.233778 179.598222-0.455111 324.778667-145.692444 325.12-325.233778 0-119.011556-64.227556-222.663111-159.800889-279.552-24.291556-14.392889-32.256-45.738667-17.92-69.973333 14.449778-24.177778 45.795556-32.142222 70.030222-17.806222 125.326222 74.012444 209.976889 210.830222 209.976889 367.274667 0 235.918222-191.260444 427.235556-427.292444 427.235556C275.911111 962.787556 84.593778 771.584 84.593778 535.438222" p-id="3223" fill="#F2F4F5"></path></svg>