<?xml version="1.0" standalone="no"?><!DOCTYPE svg PUBLIC "-//W3C//DTD SVG 1.1//EN" "http://www.w3.org/Graphics/SVG/1.1/DTD/svg11.dtd"><svg t="1524116920490" class="icon" style="" viewBox="0 0 1024 1024" version="1.1" xmlns="http://www.w3.org/2000/svg" p-id="1919" xmlns:xlink="http://www.w3.org/1999/xlink" width="20" height="20"><defs><style type="text/css"></style></defs><path d="M837.914838 774.764566c0-27.980261-10.703783-52.738132-31.607882-68.308759-58.392922-39.787168-104.661711-64.805982-186.714496-100.475366-20.726044-7.637957-34.792411-27.450189-34.792411-50.726312 0-16.423041 7.087419-31.924083 19.368116-41.012066 73.433476-54.32221 83.992973-214.32125 83.992973-214.32125 0-94.293573-76.738755-170.732499-171.511235-170.732499-94.770434 0-172.122149 76.5607-172.122149 170.854273 0 0 4.312212 123.051547 51.780317 178.942485l0.004093 0c9.496282 13.553691 19.436678 25.414833 31.737842 35.378765 11.610432 9.925047 19.295462 24.52865 19.295462 40.951691 0 23.280216-14.644535 43.060725-35.370579 50.698682-68.563562 28.569686-126.814244 59.249429-188.084703 100.460016-20.904099 15.569604-34.46086 40.320311-34.46086 68.300572 0 39.774889 27.398 73.092715 64.401776 82.573647 0 0 95.646384 40.135092 256.966513 40.135092 160.177096 0 256.967536-40.078811 256.967536-40.11872l0-0.020466C804.176432 847.862397 837.914838 814.539454 837.914838 774.764566L837.914838 774.764566zM837.914838 774.764566" p-id="1920" fill="#F2F4F5"></path></svg>